<svg xmlns="http://www.w3.org/2000/svg" version="1.1" xmlns:xlink="http://www.w3.org/1999/xlink" width="512" height="512" x="0" y="0" viewBox="0 0 512 512" style="enable-background:new 0 0 512 512" xml:space="preserve" fill-rule="evenodd"><g><linearGradient id="a" x1="8.536" x2="503.888" y1="256" y2="256" gradientUnits="userSpaceOnUse"><stop stop-opacity="1" stop-color="#ec297b" offset="0"></stop><stop stop-opacity="1" stop-color="#a21f64" offset="0"></stop><stop stop-opacity="1" stop-color="#db2776" offset="0"></stop><stop stop-opacity="1" stop-color="#d73a49" offset="0"></stop><stop stop-opacity="1" stop-color="#c0236d" offset="0"></stop><stop stop-opacity="1" stop-color="#ad2168" offset="0.0019305019305019305"></stop><stop stop-opacity="1" stop-color="#d73a49" offset="0.0019305019305019305"></stop><stop stop-opacity="1" stop-color="#ff9e4d" offset="1"></stop></linearGradient><path fill="url(#a)" d="M374.536 508.106H171.233V452.42h253.256v5.732c.001 27.55-22.407 49.954-49.954 49.954zM53.423 187.842H41.256c-18.042 0-32.72-14.678-32.72-32.72s14.678-32.72 32.72-32.72h12.167V53.848c0-27.545 22.408-49.954 49.954-49.954h52.1v437.32a7.859 7.859 0 0 0-.735 3.328c0 1.19.264 2.319.736 3.329v60.235h-52.1c-27.545 0-49.954-22.41-49.954-49.954V389.6H41.256c-18.042 0-32.72-14.678-32.72-32.72s14.678-32.726 32.72-32.726l12.168.002v-35.437H41.256c-18.042 0-32.72-14.678-32.72-32.716 0-18.042 14.678-32.72 32.72-32.72h12.167v-35.44zm0-49.683H41.256c-9.356 0-16.963 7.606-16.963 16.958 0 9.357 7.607 16.963 16.963 16.963h12.167V138.16zm0 100.88H41.256c-9.356 0-16.963 7.607-16.963 16.96 0 9.351 7.607 16.962 16.963 16.962h12.168l-.001-33.921zm.001 100.873H41.256c-9.356 0-16.963 7.607-16.963 16.968 0 9.352 7.607 16.963 16.963 16.963h12.168zM440.49 186.159V96.528h55.013a7.889 7.889 0 0 1 7.058 4.37 7.89 7.89 0 0 1-.775 8.265l-24.021 31.717 23.507 31.952a7.847 7.847 0 0 1 2.191 5.45v.1l-.002.1v.003l-.002.097-.005.1v.005l-.006.095-.006.099-.001.007-.007.09-.01.099v.01l-.01.088-.01.098-.003.013-.01.084-.015.097-.002.015-.013.08-.016.097-.003.018-.015.077-.018.095-.004.022-.015.073-.022.094-.004.024-.017.07-.023.094-.006.026-.018.066-.026.094-.007.028-.019.064-.027.09-.01.031-.019.062-.03.09-.01.033-.002.003-.05.144-.013.035-.02.054-.034.088-.014.038-.02.051-.036.087-.016.04-.021.048-.038.086-.018.041-.021.045-.08.17-.043.085-.021.044-.022.04-.043.083-.025.046-.02.037-.046.081-.046.082-.048.081-.03.049-.02.031-.048.08-.031.05-.02.029-.051.078-.035.052-.017.026-.053.076-.037.054-.017.022-.055.076-.04.054-.016.021-.056.075-.043.055-.015.018-.058.073-.045.056-.014.016-.06.07-.049.059-.012.013-.061.07-.052.057-.01.012-.064.069-.055.058-.01.009-.064.067-23.452 30.971 23.507 31.953a7.845 7.845 0 0 1 2.191 5.45c.005 4.348-3.523 7.876-7.878 7.876-.02 0-.053.005-.082 0h-55.013V186.16zM111.715 407.227a7.876 7.876 0 0 1-7.879-7.878v-35.263c0-4.354 3.526-7.88 7.88-7.88s7.877 3.526 7.877 7.88v35.263a7.878 7.878 0 0 1-7.878 7.878zm0-100.877a7.876 7.876 0 0 1-7.879-7.878v-35.264c0-4.353 3.526-7.878 7.88-7.878s7.877 3.525 7.877 7.878v35.264a7.877 7.877 0 0 1-7.878 7.878zm0-100.876a7.876 7.876 0 0 1-7.879-7.878v-35.263c0-4.354 3.526-7.88 7.88-7.88s7.877 3.526 7.877 7.88v35.263a7.875 7.875 0 0 1-7.878 7.878zm263.856 186.012H212.367a7.877 7.877 0 0 1-7.879-7.88 7.876 7.876 0 0 1 7.88-7.877h163.198a7.876 7.876 0 0 1 7.88 7.878 7.875 7.875 0 0 1-7.875 7.879zm.005-52.962H212.374a7.876 7.876 0 0 1-7.878-7.88 7.876 7.876 0 0 1 7.878-7.877h163.202a7.88 7.88 0 0 1 0 15.757zm-33.069-62.666h-84.946c-9.415 0-17.074-7.657-17.074-17.073v-28.21c-20.89-6.484-35.449-25.82-35.449-48.26 0-27.874 22.677-50.55 50.554-50.55 3.773 0 7.502.415 11.145 1.236 9.155-7.981 21.03-12.483 33.253-12.483 12.224 0 24.095 4.5 33.254 12.483a50.672 50.672 0 0 1 11.145-1.236c27.873 0 50.549 22.676 50.549 50.55 0 22.44-14.556 41.78-35.445 48.26v28.312c-.007 9.356-7.622 16.97-16.986 16.97zm-86.916-128.34c-19.187 0-34.797 15.61-34.797 34.792 0 17.014 12.154 31.44 28.896 34.296a7.875 7.875 0 0 1 6.552 7.768v34.411c0 .7.616 1.316 1.317 1.316h84.948c.649 0 1.223-.57 1.223-1.219V224.37c0-3.842 2.77-7.12 6.551-7.77 16.743-2.855 28.891-17.279 28.891-34.295 0-19.187-15.61-34.792-34.791-34.792-3.726 0-7.395.587-10.895 1.741a7.872 7.872 0 0 1-8.198-2.073c-6.639-7.037-15.63-10.914-25.3-10.914s-18.662 3.877-25.301 10.914a7.893 7.893 0 0 1-8.198 2.073 34.976 34.976 0 0 0-10.898-1.736zm-84.357 289.145V75.338H424.49v361.325zm0-377.082V3.894h203.303c27.545 0 49.954 22.41 49.954 49.954v5.733H171.235z" opacity="1" data-original="url(#a)"></path></g></svg>