<svg width="1015" height="265" viewBox="0 0 1015 265" fill="none" xmlns="http://www.w3.org/2000/svg">
<path d="M331.704 231V117.76H406.336V133.72H349.64V166.248H403.296V182.208H349.64V215.04H406.336V231H331.704ZM445.945 232.824C440.372 232.824 435.457 231.861 431.201 229.936C427.046 227.909 423.804 225.173 421.473 221.728C419.142 218.181 417.977 214.027 417.977 209.264C417.977 204.805 418.94 200.803 420.865 197.256C422.892 193.709 425.982 190.72 430.137 188.288C434.292 185.856 439.51 184.133 445.793 183.12L474.369 178.408V191.936L449.137 196.344C444.577 197.155 441.233 198.624 439.105 200.752C436.977 202.779 435.913 205.413 435.913 208.656C435.913 211.797 437.078 214.381 439.409 216.408C441.841 218.333 444.932 219.296 448.681 219.296C453.342 219.296 457.396 218.283 460.841 216.256C464.388 214.229 467.124 211.544 469.049 208.2C470.974 204.755 471.937 200.955 471.937 196.8V175.672C471.937 171.619 470.417 168.325 467.377 165.792C464.438 163.157 460.486 161.84 455.521 161.84C450.961 161.84 446.958 163.056 443.513 165.488C440.169 167.819 437.686 170.859 436.065 174.608L421.777 167.464C423.297 163.411 425.78 159.864 429.225 156.824C432.67 153.683 436.673 151.251 441.233 149.528C445.894 147.805 450.809 146.944 455.977 146.944C462.462 146.944 468.188 148.16 473.153 150.592C478.22 153.024 482.121 156.419 484.857 160.776C487.694 165.032 489.113 169.997 489.113 175.672V231H472.697V216.104L476.193 216.56C474.268 219.904 471.785 222.792 468.745 225.224C465.806 227.656 462.412 229.531 458.561 230.848C454.812 232.165 450.606 232.824 445.945 232.824ZM539.596 232.824C531.185 232.824 523.788 230.747 517.404 226.592C511.121 222.437 506.713 216.864 504.18 209.872L517.404 203.64C519.633 208.301 522.673 212 526.524 214.736C530.476 217.472 534.833 218.84 539.596 218.84C543.649 218.84 546.943 217.928 549.476 216.104C552.009 214.28 553.276 211.797 553.276 208.656C553.276 206.629 552.719 205.008 551.604 203.792C550.489 202.475 549.071 201.411 547.348 200.6C545.727 199.789 544.055 199.181 542.332 198.776L529.412 195.128C522.319 193.101 516.999 190.061 513.452 186.008C510.007 181.853 508.284 177.04 508.284 171.568C508.284 166.603 509.551 162.296 512.084 158.648C514.617 154.899 518.113 152.011 522.572 149.984C527.031 147.957 532.047 146.944 537.62 146.944C545.119 146.944 551.807 148.819 557.684 152.568C563.561 156.216 567.716 161.333 570.148 167.92L556.924 174.152C555.303 170.2 552.719 167.059 549.172 164.728C545.727 162.397 541.825 161.232 537.468 161.232C533.719 161.232 530.729 162.144 528.5 163.968C526.271 165.691 525.156 167.971 525.156 170.808C525.156 172.733 525.663 174.355 526.676 175.672C527.689 176.888 529.007 177.901 530.628 178.712C532.249 179.421 533.921 180.029 535.644 180.536L549.02 184.488C555.809 186.413 561.028 189.453 564.676 193.608C568.324 197.661 570.148 202.525 570.148 208.2C570.148 213.064 568.831 217.371 566.196 221.12C563.663 224.768 560.116 227.656 555.556 229.784C550.996 231.811 545.676 232.824 539.596 232.824ZM592.789 264.44C590.762 264.44 588.736 264.237 586.709 263.832C584.784 263.528 583.01 263.021 581.389 262.312V247.568C582.605 247.872 584.074 248.125 585.797 248.328C587.52 248.632 589.192 248.784 590.813 248.784C595.576 248.784 599.072 247.72 601.301 245.592C603.632 243.565 605.709 240.424 607.533 236.168L613.005 223.704L612.701 238.144L577.133 148.768H595.525L621.821 217.32H615.589L641.733 148.768H660.277L623.949 239.968C622.024 244.832 619.592 249.088 616.653 252.736C613.816 256.485 610.421 259.373 606.469 261.4C602.618 263.427 598.058 264.44 592.789 264.44Z" fill="#D73A49"/>
<path d="M673.704 231V117.76H690.424L732.984 176.736H724.624L766.424 117.76H783.144V231H765.36V138.888L772.048 140.712L729.336 199.08H727.512L685.712 140.712L691.64 138.888V231H673.704ZM843.492 232.824C835.284 232.824 827.988 230.949 821.604 227.2C815.321 223.349 810.406 218.181 806.86 211.696C803.313 205.109 801.54 197.763 801.54 189.656C801.54 181.347 803.313 174 806.86 167.616C810.508 161.232 815.372 156.216 821.452 152.568C827.532 148.819 834.422 146.944 842.124 146.944C848.305 146.944 853.828 148.008 858.692 150.136C863.556 152.264 867.66 155.203 871.004 158.952C874.348 162.6 876.881 166.805 878.604 171.568C880.428 176.331 881.34 181.397 881.34 186.768C881.34 188.085 881.289 189.453 881.188 190.872C881.086 192.291 880.884 193.608 880.58 194.824H815.068V181.144H870.852L862.644 187.376C863.657 182.411 863.302 178.003 861.58 174.152C859.958 170.2 857.425 167.109 853.98 164.88C850.636 162.549 846.684 161.384 842.124 161.384C837.564 161.384 833.51 162.549 829.964 164.88C826.417 167.109 823.681 170.352 821.756 174.608C819.83 178.763 819.07 183.829 819.476 189.808C818.969 195.381 819.729 200.245 821.756 204.4C823.884 208.555 826.822 211.797 830.572 214.128C834.422 216.459 838.78 217.624 843.644 217.624C848.609 217.624 852.814 216.509 856.26 214.28C859.806 212.051 862.593 209.163 864.62 205.616L878.604 212.456C876.982 216.307 874.449 219.803 871.004 222.944C867.66 225.984 863.606 228.416 858.844 230.24C854.182 231.963 849.065 232.824 843.492 232.824ZM921.984 232.824C916.411 232.824 911.496 231.861 907.24 229.936C903.085 227.909 899.843 225.173 897.512 221.728C895.181 218.181 894.016 214.027 894.016 209.264C894.016 204.805 894.979 200.803 896.904 197.256C898.931 193.709 902.021 190.72 906.176 188.288C910.331 185.856 915.549 184.133 921.832 183.12L950.408 178.408V191.936L925.176 196.344C920.616 197.155 917.272 198.624 915.144 200.752C913.016 202.779 911.952 205.413 911.952 208.656C911.952 211.797 913.117 214.381 915.448 216.408C917.88 218.333 920.971 219.296 924.72 219.296C929.381 219.296 933.435 218.283 936.88 216.256C940.427 214.229 943.163 211.544 945.088 208.2C947.013 204.755 947.976 200.955 947.976 196.8V175.672C947.976 171.619 946.456 168.325 943.416 165.792C940.477 163.157 936.525 161.84 931.56 161.84C927 161.84 922.997 163.056 919.552 165.488C916.208 167.819 913.725 170.859 912.104 174.608L897.816 167.464C899.336 163.411 901.819 159.864 905.264 156.824C908.709 153.683 912.712 151.251 917.272 149.528C921.933 147.805 926.848 146.944 932.016 146.944C938.501 146.944 944.227 148.16 949.192 150.592C954.259 153.024 958.16 156.419 960.896 160.776C963.733 165.032 965.152 169.997 965.152 175.672V231H948.736V216.104L952.232 216.56C950.307 219.904 947.824 222.792 944.784 225.224C941.845 227.656 938.451 229.531 934.6 230.848C930.851 232.165 926.645 232.824 921.984 232.824ZM985.235 231V115.936H1002.41V231H985.235Z" fill="#F5A855"/>
<path d="M55.2824 252.081C68.4202 256.827 82.2904 259.225 96.2591 259.166C111.512 259.113 126.649 256.507 141.042 251.454C169.972 241.391 193.993 222.666 208.68 198.728C223.565 174.468 227.122 147.765 218.696 123.539C218.533 123.078 218.344 122.626 218.132 122.185C220.246 123.682 222.667 124.69 225.218 125.138C227.77 125.585 230.389 125.46 232.887 124.772L312.504 86.139C314.303 85.2746 315.912 84.0608 317.238 82.5685C318.563 81.0761 319.578 79.335 320.224 77.4464C320.871 75.5579 321.134 73.5597 321.001 71.5682C320.867 69.5767 320.339 67.6316 319.446 65.8464L318.271 63.497C316.538 60.0161 313.522 57.343 309.859 56.0397C306.195 54.7363 302.169 54.9044 298.627 56.5085L223.65 90.7424C219.914 91.779 216.622 94.0138 214.28 97.1033C211.938 100.193 210.675 103.966 210.686 107.843C210.685 109.833 211.024 111.809 211.689 113.685L210.213 114.669C190.531 104.825 142.797 112.761 98.1977 128.275C95.5773 129.186 92.9648 130.125 90.3603 131.093C85.4315 112.833 98.1864 99.5423 98.8805 98.8382L91.7742 91.7582C86.9137 97.0144 83.278 103.282 81.1284 110.111C78.5904 118.11 78.5203 126.688 80.9272 134.727C72.9016 137.931 65.1896 141.319 57.892 144.84C53.8447 129.816 53.4855 114.314 54.0366 103.112C54.1447 100.851 53.8 98.5911 53.0225 96.4652C52.245 94.3394 51.0506 92.3904 49.5093 90.7326C47.9681 89.0749 46.111 87.7419 44.0474 86.8119C41.9837 85.8819 39.755 85.3737 37.4922 85.3171C35.2293 85.2606 32.978 85.6568 30.8705 86.4825C28.7629 87.3082 26.8416 88.5467 25.2194 90.1254C23.5972 91.704 22.3069 93.5909 21.4242 95.6753C20.5415 97.7596 20.0842 99.9993 20.0792 102.263V137.738C20.0777 138.457 19.7914 139.145 19.2831 139.653C18.7748 140.161 18.0859 140.446 17.3674 140.447C15.6876 140.446 14.0243 140.778 12.4732 141.423C10.922 142.067 9.51367 143.012 8.3292 144.203C7.14473 145.395 6.2075 146.808 5.57147 148.363C4.93543 149.918 4.61314 151.583 4.62315 153.263C4.84552 161.401 6.29582 169.459 8.92496 177.165C1.24992 185.382 -1.49507 192.83 0.767758 199.337C9.19519 223.563 28.5555 242.295 55.2824 252.081ZM137.746 241.975C110.997 251.279 82.9367 251.523 58.7315 242.661C40.8471 236.112 26.6921 225.164 17.6007 211.101C22.8455 212.127 28.1825 212.608 33.5264 212.534C36.599 212.534 39.8803 212.415 43.3702 212.176C60.6646 210.989 81.4783 206.863 103.322 200.378C103.76 200.448 115.721 196.53 121.27 194.6C133.927 190.22 146.348 185.187 158.485 179.522L158.74 179.403C171.863 173.227 183.606 166.66 193.261 160.039C201.901 154.116 208.408 148.511 212.784 143.224C216.557 183.281 185.958 225.207 137.746 241.975ZM189.967 141.029C188.909 150.02 187.149 151.873 187.075 151.947L187.172 152.044C183.019 154.872 178.465 157.692 173.566 160.476C176.839 153.997 179.002 147.015 179.963 139.82C180.128 138.605 180.728 137.491 181.651 136.684C182.574 135.878 183.758 135.432 184.984 135.431C185.693 135.431 186.393 135.58 187.039 135.87C187.685 136.16 188.262 136.583 188.733 137.112C189.204 137.641 189.557 138.264 189.77 138.939C189.983 139.615 190.05 140.327 189.968 141.031L189.967 141.029ZM302.761 65.6463C303.941 65.1145 305.281 65.0604 306.5 65.4955C307.719 65.9307 308.722 66.8212 309.298 67.98L310.473 70.3294C310.772 70.9265 310.948 71.5772 310.992 72.2433C311.036 72.9095 310.946 73.5777 310.728 74.2088C310.511 74.8399 310.169 75.4211 309.724 75.9185C309.278 76.4159 308.738 76.8194 308.135 77.1053L245.789 107.476C245.738 104.996 245.161 102.555 244.096 100.315C243.031 98.0741 241.502 96.0853 239.611 94.48L302.761 65.6463ZM228.241 100.319C229.811 100.317 231.342 100.807 232.619 101.719C233.896 102.632 234.856 103.921 235.363 105.407C235.87 106.892 235.899 108.499 235.446 110.002C234.994 111.505 234.082 112.828 232.839 113.786L230.08 115.131C229.188 115.367 228.258 115.427 227.343 115.308L228.518 114.525C229.073 114.163 229.551 113.694 229.924 113.146C230.297 112.598 230.557 111.981 230.691 111.332C230.824 110.683 230.827 110.013 230.7 109.363C230.573 108.712 230.318 108.093 229.95 107.542C229.583 106.99 229.109 106.517 228.558 106.15C228.006 105.782 227.387 105.528 226.736 105.401C226.086 105.274 225.416 105.277 224.767 105.411C224.118 105.544 223.501 105.805 222.953 106.178L220.729 107.661C220.777 105.7 221.59 103.835 222.993 102.463C224.396 101.092 226.279 100.323 228.241 100.319ZM91.4651 153.69L99.1721 147.268C97.3506 145.098 95.7147 142.779 94.2815 140.335C96.6748 139.452 99.0843 138.588 101.492 137.749C128.923 128.209 155.664 122.156 176.783 120.707C186.61 120.034 194.893 120.426 200.734 121.844C205.487 122.996 208.5 124.768 209.218 126.833C209.936 128.898 208.672 132.156 205.661 136.01C203.919 138.185 202.005 140.217 199.938 142.087C200.361 138.147 199.216 134.199 196.75 131.098C194.284 127.996 190.695 125.991 186.761 125.515C182.827 125.04 178.865 126.134 175.731 128.559C172.597 130.984 170.545 134.546 170.018 138.473C167.47 157.227 156.383 168.156 153.291 170.877C141.763 176.215 129.974 180.97 117.969 185.125C112.852 186.905 107.77 188.561 102.723 190.092C82.906 186.268 68.8939 174.292 61.0477 154.449C68.529 150.8 76.4968 147.291 84.8001 143.978C86.6988 147.426 88.9311 150.679 91.4651 153.69ZM15.4394 151.28C15.6914 151.025 15.9917 150.823 16.3227 150.685C16.6538 150.548 17.0089 150.477 17.3674 150.479C20.7461 150.475 23.9853 149.131 26.3744 146.742C28.7634 144.353 30.1073 141.114 30.1111 137.735V102.263C30.1123 100.417 30.8459 98.6479 32.1508 97.3429C33.4558 96.038 35.2253 95.3044 37.0708 95.3032C38.0142 95.3037 38.9478 95.496 39.8146 95.8684C40.6815 96.2409 41.4636 96.7857 42.1134 97.4698C42.7631 98.1539 43.267 98.9629 43.5944 99.8478C43.9218 100.733 44.0659 101.675 44.0179 102.617C43.3006 117.19 44.0461 138.63 51.6716 158.007C56.0637 169.168 62.2759 178.352 70.1347 185.302C74.6101 189.249 79.6472 192.509 85.081 194.975C73.6091 197.944 61.9461 200.117 50.1749 201.479L45.9847 200.707C34.7816 198.839 26.2733 191.761 20.6955 179.67C16.9718 171.326 14.9201 162.333 14.6563 153.2C14.6528 152.844 14.7203 152.491 14.8547 152.161C14.9892 151.832 15.188 151.532 15.4394 151.28ZM10.2435 196.042C9.54945 194.047 10.6981 191.005 13.3735 187.435C16.3346 193.06 20.381 198.043 25.2789 202.095C23.0735 201.89 20.8848 201.534 18.728 201.03C13.9773 199.877 10.9652 198.107 10.2454 196.044V196.041L10.2435 196.042Z" fill="url(#paint0_linear_11_161)"/>
<path d="M45.159 35.1117C42.1828 35.1117 39.2735 35.9943 36.7989 37.6477C34.3243 39.3012 32.3955 41.6514 31.2566 44.401C30.1177 47.1507 29.8197 50.1763 30.4003 53.0953C30.9809 56.0143 32.4141 58.6956 34.5186 60.8C36.6231 62.9045 39.3043 64.3377 42.2233 64.9183C45.1423 65.4989 48.168 65.2009 50.9176 64.062C53.6672 62.9231 56.0174 60.9943 57.6709 58.5197C59.3244 56.0451 60.2069 53.1358 60.2069 50.1596C60.2024 46.17 58.6156 42.3451 55.7945 39.5241C52.9735 36.703 49.1486 35.1162 45.159 35.1117ZM45.159 55.1755C44.167 55.1755 43.1972 54.8814 42.3723 54.3302C41.5474 53.779 40.9045 52.9957 40.5249 52.0791C40.1452 51.1626 40.0459 50.154 40.2394 49.181C40.433 48.208 40.9107 47.3143 41.6122 46.6128C42.3137 45.9113 43.2075 45.4335 44.1805 45.24C45.1535 45.0465 46.162 45.1458 47.0786 45.5254C47.9951 45.9051 48.7785 46.548 49.3296 47.3729C49.8808 48.1977 50.175 49.1675 50.175 50.1596C50.1735 51.4894 49.6445 52.7644 48.7042 53.7048C47.7638 54.6451 46.4889 55.1741 45.159 55.1755Z" fill="url(#paint1_linear_11_161)"/>
<path d="M95.3186 15.0479C95.3186 12.0717 94.4361 9.16234 92.7826 6.68773C91.1291 4.21312 88.7789 2.2844 86.0293 1.14546C83.2797 0.00652004 80.254 -0.291478 77.335 0.289147C74.416 0.869773 71.7347 2.30294 69.6303 4.40743C67.5258 6.51191 66.0926 9.19318 65.512 12.1122C64.9314 15.0312 65.2294 18.0568 66.3683 20.8065C67.5072 23.5561 69.436 25.9063 71.9106 27.5597C74.3852 29.2132 77.2945 30.0958 80.2707 30.0958C84.2603 30.0913 88.0852 28.5044 90.9062 25.6834C93.7273 22.8623 95.3141 19.0375 95.3186 15.0479ZM75.2548 15.0479C75.2548 14.0558 75.5489 13.086 76.1001 12.2612C76.6513 11.4363 77.4347 10.7934 78.3512 10.4137C79.2677 10.0341 80.2763 9.93476 81.2493 10.1283C82.2223 10.3218 83.1161 10.7996 83.8175 11.5011C84.519 12.2026 84.9968 13.0963 85.1903 14.0693C85.3838 15.0423 85.2845 16.0509 84.9049 16.9674C84.5252 17.884 83.8823 18.6673 83.0574 19.2185C82.2326 19.7697 81.2628 20.0638 80.2707 20.0638C78.9409 20.0623 77.6659 19.5334 76.7256 18.593C75.7852 17.6527 75.2563 16.3777 75.2548 15.0479Z" fill="url(#paint2_linear_11_161)"/>
<path d="M65.2228 70.2234H75.2548V80.2553H65.2228V70.2234Z" fill="url(#paint3_linear_11_161)"/>
<path d="M60.2069 115.367H70.2388V125.399H60.2069V115.367Z" fill="url(#paint4_linear_11_161)"/>
<path d="M90.3026 160.511H100.335V170.543H90.3026V160.511Z" fill="url(#paint5_linear_11_161)"/>
<path d="M10.0474 65.2075H20.0793V75.2394H10.0474V65.2075Z" fill="url(#paint6_linear_11_161)"/>
<path d="M52.409 199.796L57.9736 191.449C45.7146 183.276 45.1735 175.747 45.1591 175.43C45.1634 175.515 45.1591 175.559 45.1591 175.559H35.1271C35.1271 176.86 35.6118 188.6 52.409 199.796Z" fill="url(#paint7_linear_11_161)"/>
<path d="M101.895 47.4566C103.967 44.322 106.312 41.3765 108.902 38.6542L101.804 31.5648C101.13 32.2395 85.2867 48.2786 85.2867 65.2075H95.3186C95.3186 60.0924 97.5927 53.9542 101.895 47.4566Z" fill="url(#paint8_linear_11_161)"/>
<defs>
<linearGradient id="paint0_linear_11_161" x1="303.877" y1="-40.2957" x2="-6.28344" y2="269.865" gradientUnits="userSpaceOnUse">
<stop offset="0.259615" stop-color="#FF9E4D"/>
<stop offset="0.745192" stop-color="#D73A49"/>
</linearGradient>
<linearGradient id="paint1_linear_11_161" x1="219.746" y1="-124.427" x2="-90.4148" y2="185.733" gradientUnits="userSpaceOnUse">
<stop stop-color="#F7941E"/>
<stop offset="1" stop-color="#EE2A7B"/>
</linearGradient>
<linearGradient id="paint2_linear_11_161" x1="219.746" y1="-124.427" x2="-90.4148" y2="185.733" gradientUnits="userSpaceOnUse">
<stop stop-color="#F7941E"/>
<stop offset="1" stop-color="#EE2A7B"/>
</linearGradient>
<linearGradient id="paint3_linear_11_161" x1="244.825" y1="-99.3473" x2="-65.335" y2="210.813" gradientUnits="userSpaceOnUse">
<stop stop-color="#F7941E"/>
<stop offset="1" stop-color="#EE2A7B"/>
</linearGradient>
<linearGradient id="paint4_linear_11_161" x1="264.889" y1="-79.2835" x2="-45.2712" y2="230.877" gradientUnits="userSpaceOnUse">
<stop stop-color="#F7941E"/>
<stop offset="1" stop-color="#EE2A7B"/>
</linearGradient>
<linearGradient id="paint5_linear_11_161" x1="302.509" y1="-41.6638" x2="-7.65153" y2="268.497" gradientUnits="userSpaceOnUse">
<stop stop-color="#F7941E"/>
<stop offset="1" stop-color="#EE2A7B"/>
</linearGradient>
<linearGradient id="paint6_linear_11_161" x1="214.73" y1="-129.443" x2="-95.4307" y2="180.717" gradientUnits="userSpaceOnUse">
<stop stop-color="#F7941E"/>
<stop offset="1" stop-color="#EE2A7B"/>
</linearGradient>
<linearGradient id="paint7_linear_11_161" x1="287.809" y1="-56.3636" x2="-22.3519" y2="253.797" gradientUnits="userSpaceOnUse">
<stop stop-color="#F7941E"/>
<stop offset="1" stop-color="#EE2A7B"/>
</linearGradient>
<linearGradient id="paint8_linear_11_161" x1="245.56" y1="-98.6125" x2="-64.6008" y2="211.548" gradientUnits="userSpaceOnUse">
<stop stop-color="#F7941E"/>
<stop offset="1" stop-color="#EE2A7B"/>
</linearGradient>
</defs>
</svg>
